<?xml version="1.0" encoding="UTF-8"?>
<svg width="340" height="340" version="1.1" viewBox="0 0 89.958 89.958" xmlns="http://www.w3.org/2000/svg" xmlns:cc="http://creativecommons.org/ns#" xmlns:dc="http://purl.org/dc/elements/1.1/" xmlns:rdf="http://www.w3.org/1999/02/22-rdf-syntax-ns#">
 <metadata>
  <rdf:RDF>
   <cc:Work rdf:about="">
    <dc:format>image/svg+xml</dc:format>
    <dc:type rdf:resource="http://purl.org/dc/dcmitype/StillImage"/>
    <dc:title/>
   </cc:Work>
  </rdf:RDF>
 </metadata>
 <g transform="translate(0 -207.04)">
  <path d="m56.634 216.3c-1.092 0.0703-3.7195 4.2811-5.3526 6.754-2.8091 4.5702-2.8532 6.0362-4.4136 5.7174-3.1476-0.7999-5.9335-1.6324-8.9934-2.619-1.3646-0.26974-7.3753-1.895-5.6131 0.16418 3.8376 1.6348 7.6574 3.5328 11.948 4.3444 1.9591 0.32646 1.8174 2.0232 1.415 3.4985-0.45676 2.6235-0.83795 4.0127-1.2724 6.4734-0.62643 4.8457-1.0154 9.7388-1.2232 14.616-0.62356 3.3124-4.376 0.68005-7.0323 1.1722-2.0275 1.6693 1.1076 1.5535 1.6719 1.9392 3.6004 0.26493 5.373 2.1205 4.933 4.8662-0.3279 2.6987 0.42841 5.386 0.33435 8.1195 0.01365 2.8041 2.3528 5.5488 1.0563 8.3739-2.1199 1.1854-5.031 1.0029-7.4574 1.738 0.99413 0.34337 4.0226 0.63925 5.7102 0.98273 2.4335 0.37054 8.8508 1.047 6.5955-2.2715-1.014-2.4224-4.0272-6.9728-0.14366-8.3874 4.1155-0.38939 8.604 0.22306 12.1 2.0087 2.7017 0.9622 5.3386 3.1608 5.457 5.5848-0.70991 2.9561-3.5392 5.2786-5.6922 7.6758-0.18115 0.22875-0.36197 0.45773-0.54312 0.68647 2.1114-1.1924 4.5476-2.0062 6.566-3.2877 2.3972-2.0178 4.5778-4.4841 4.7542-7.3065-2.1931-1.6366-4.3206-3.4083-7.135-4.3983-5.4676-2.5183-11.91-1.658-17.945-1.7571-0.31536-3.1183-0.38298-6.252-0.22944-9.3771 1.0153-3.4186 6.4317-1.4766 9.6093-2.3399 3.5164-0.13777 7.6091-1.691 7.539-4.788 0.85326-3.0674 2.3415-6.0381 2.5461-9.2055 1.3502-2.4475-0.69656-0.33089-1.4128 0.67252-2.3297 2.2906-3.7358 5.1743-5.9211 7.5288-2.5366 2.2801-6.375 2.918-9.9994 3.4458-4.6588 0.308-2.5334-4.129-2.2766-6.2036 0.35844-3.67 0.77334-5.8311 1.1763-8.6804 0 0 1.1021-4.8487 1.7919-7.6958 0.75818-3.6462 2.9259-0.95065 4.0231-2.8066 0.01623-0.13895 0.09526-0.19957 0.05398-0.30152-0.36266-0.89552-1.6149-0.93944-1.5438-1.7575 0.2301-2.6501 2.9212-5.6071 4.0386-7.1041 1.5809-1.955 5.2618-5.628 0.88077-6.075zm-18.131 57.391c-4.6448 1.3023-8.9856 3.2442-13.456 4.8858-1.5154 1.3231-8.6078 1.56-5.9278 3.8514l0.57154 0.33905 0.50126 0.20139c3.2325-0.3671 7.6962-0.0576 9.8072-2.4036 2.1531-2.762 5.2786-4.9251 8.5034-6.874z" fill="#162d50" stroke-width=".29236"/>
 </g>
 <g>
  <path transform="scale(.26458)" d="m170 0a170 170 0 0 0-170 170 170 170 0 0 0 170 170 170 170 0 0 0 170-170 170 170 0 0 0-170-170zm0 8a162 162 0 0 1 162 162 162 162 0 0 1-162 162 162 162 0 0 1-162-162 162 162 0 0 1 162-162z" fill="#162d50" stroke-width="7.949" style="paint-order:markers stroke fill"/>
 </g>
</svg>
